  0
SECTION
  2
HEADER
  9
$ACADVER
  1
AC1024
  9
$ACADMAINTVER
 70
6
  9
$DWGCODEPAGE
  3
ANSI_1252
  9
$LASTSAVEDBY
  1
ezdxf
  9
$INSBASE
 10
0.0
 20
0.0
 30
0.0
  9
$EXTMIN
 10
1e+20
 20
1e+20
 30
1e+20
  9
$EXTMAX
 10
-1e+20
 20
-1e+20
 30
-1e+20
  9
$LIMMIN
 10
0.0
 20
0.0
  9
$LIMMAX
 10
420.0
 20
297.0
  9
$ORTHOMODE
 70
0
  9
$REGENMODE
 70
1
  9
$FILLMODE
 70
1
  9
$QTEXTMODE
 70
0
  9
$MIRRTEXT
 70
1
  9
$LTSCALE
 40
1.0
  9
$ATTMODE
 70
1
  9
$TEXTSIZE
 40
2.5
  9
$TRACEWID
 40
1.0
  9
$TEXTSTYLE
  7
Standard
  9
$CLAYER
  8
0
  9
$CELTYPE
  6
ByLayer
  9
$CECOLOR
 62
256
  9
$CELTSCALE
 40
1.0
  9
$DISPSILH
 70
0
  9
$DIMSCALE
 40
1.0
  9
$DIMASZ
 40
2.5
  9
$DIMEXO
 40
0.625
  9
$DIMDLI
 40
3.75
  9
$DIMRND
 40
0.0
  9
$DIMDLE
 40
0.0
  9
$DIMEXE
 40
1.25
  9
$DIMTP
 40
0.0
  9
$DIMTM
 40
0.0
  9
$DIMTXT
 40
2.5
  9
$DIMCEN
 40
2.5
  9
$DIMTSZ
 40
0.0
  9
$DIMTOL
 70
0
  9
$DIMLIM
 70
0
  9
$DIMTIH
 70
0
  9
$DIMTOH
 70
0
  9
$DIMSE1
 70
0
  9
$DIMSE2
 70
0
  9
$DIMTAD
 70
1
  9
$DIMZIN
 70
8
  9
$DIMBLK
  1

  9
$DIMASO
 70
1
  9
$DIMSHO
 70
1
  9
$DIMPOST
  1

  9
$DIMAPOST
  1

  9
$DIMALT
 70
0
  9
$DIMALTD
 70
3
  9
$DIMALTF
 40
0.03937007874
  9
$DIMLFAC
 40
1.0
  9
$DIMTOFL
 70
1
  9
$DIMTVP
 40
0.0
  9
$DIMTIX
 70
0
  9
$DIMSOXD
 70
0
  9
$DIMSAH
 70
0
  9
$DIMBLK1
  1

  9
$DIMBLK2
  1

  9
$DIMSTYLE
  2
ISO-25
  9
$DIMCLRD
 70
0
  9
$DIMCLRE
 70
0
  9
$DIMCLRT
 70
0
  9
$DIMTFAC
 40
1.0
  9
$DIMGAP
 40
0.625
  9
$DIMJUST
 70
0
  9
$DIMSD1
 70
0
  9
$DIMSD2
 70
0
  9
$DIMTOLJ
 70
0
  9
$DIMTZIN
 70
8
  9
$DIMALTZ
 70
0
  9
$DIMALTTZ
 70
0
  9
$DIMUPT
 70
0
  9
$DIMDEC
 70
2
  9
$DIMTDEC
 70
2
  9
$DIMALTU
 70
2
  9
$DIMALTTD
 70
3
  9
$DIMTXSTY
  7
Standard
  9
$DIMAUNIT
 70
0
  9
$DIMADEC
 70
0
  9
$DIMALTRND
 40
0.0
  9
$DIMAZIN
 70
0
  9
$DIMDSEP
 70
44
  9
$DIMATFIT
 70
3
  9
$DIMFRAC
 70
0
  9
$DIMLDRBLK
  1

  9
$DIMLUNIT
 70
2
  9
$DIMLWD
 70
-2
  9
$DIMLWE
 70
-2
  9
$DIMTMOVE
 70
0
  9
$DIMFXL
 40
1.0
  9
$DIMFXLON
 70
0
  9
$DIMJOGANG
 40
0.785398163397
  9
$DIMTFILL
 70
0
  9
$DIMTFILLCLR
 70
0
  9
$DIMARCSYM
 70
0
  9
$DIMLTYPE
  6

  9
$DIMLTEX1
  6

  9
$DIMLTEX2
  6

  9
$DIMTXTDIRECTION
 70
0
  9
$LUNITS
 70
2
  9
$LUPREC
 70
4
  9
$SKETCHINC
 40
1.0
  9
$FILLETRAD
 40
10.0
  9
$AUNITS
 70
0
  9
$AUPREC
 70
2
  9
$MENU
  1
.
  9
$ELEVATION
 40
0.0
  9
$PELEVATION
 40
0.0
  9
$THICKNESS
 40
0.0
  9
$LIMCHECK
 70
0
  9
$CHAMFERA
 40
0.0
  9
$CHAMFERB
 40
0.0
  9
$CHAMFERC
 40
0.0
  9
$CHAMFERD
 40
0.0
  9
$SKPOLY
 70
0
  9
$TDCREATE
 40
2461186.648611111
  9
$TDUCREATE
 40
2458532.153996898
  9
$TDUPDATE
 40
2461186.648611111
  9
$TDUUPDATE
 40
2458532.1544311
  9
$TDINDWG
 40
0.0
  9
$TDUSRTIMER
 40
0.0
  9
$USRTIMER
 70
1
  9
$ANGBASE
 50
0.0
  9
$ANGDIR
 70
0
  9
$PDMODE
 70
0
  9
$PDSIZE
 40
0.0
  9
$PLINEWID
 40
0.0
  9
$SPLFRAME
 70
0
  9
$SPLINETYPE
 70
6
  9
$SPLINESEGS
 70
8
  9
$HANDSEED
  5
36
  9
$SURFTAB1
 70
6
  9
$SURFTAB2
 70
6
  9
$SURFTYPE
 70
6
  9
$SURFU
 70
6
  9
$SURFV
 70
6
  9
$UCSBASE
  2

  9
$UCSNAME
  2

  9
$UCSORG
 10
0.0
 20
0.0
 30
0.0
  9
$UCSXDIR
 10
1.0
 20
0.0
 30
0.0
  9
$UCSYDIR
 10
0.0
 20
1.0
 30
0.0
  9
$UCSORTHOREF
  2

  9
$UCSORTHOVIEW
 70
0
  9
$UCSORGTOP
 10
0.0
 20
0.0
 30
0.0
  9
$UCSORGBOTTOM
 10
0.0
 20
0.0
 30
0.0
  9
$UCSORGLEFT
 10
0.0
 20
0.0
 30
0.0
  9
$UCSORGRIGHT
 10
0.0
 20
0.0
 30
0.0
  9
$UCSORGFRONT
 10
0.0
 20
0.0
 30
0.0
  9
$UCSORGBACK
 10
0.0
 20
0.0
 30
0.0
  9
$PUCSBASE
  2

  9
$PUCSNAME
  2

  9
$PUCSORG
 10
0.0
 20
0.0
 30
0.0
  9
$PUCSXDIR
 10
1.0
 20
0.0
 30
0.0
  9
$PUCSYDIR
 10
0.0
 20
1.0
 30
0.0
  9
$PUCSORTHOREF
  2

  9
$PUCSORTHOVIEW
 70
0
  9
$PUCSORGTOP
 10
0.0
 20
0.0
 30
0.0
  9
$PUCSORGBOTTOM
 10
0.0
 20
0.0
 30
0.0
  9
$PUCSORGLEFT
 10
0.0
 20
0.0
 30
0.0
  9
$PUCSORGRIGHT
 10
0.0
 20
0.0
 30
0.0
  9
$PUCSORGFRONT
 10
0.0
 20
0.0
 30
0.0
  9
$PUCSORGBACK
 10
0.0
 20
0.0
 30
0.0
  9
$USERI1
 70
0
  9
$USERI2
 70
0
  9
$USERI3
 70
0
  9
$USERI4
 70
0
  9
$USERI5
 70
0
  9
$USERR1
 40
0.0
  9
$USERR2
 40
0.0
  9
$USERR3
 40
0.0
  9
$USERR4
 40
0.0
  9
$USERR5
 40
0.0
  9
$WORLDVIEW
 70
1
  9
$SHADEDGE
 70
3
  9
$SHADEDIF
 70
70
  9
$TILEMODE
 70
1
  9
$MAXACTVP
 70
64
  9
$PINSBASE
 10
0.0
 20
0.0
 30
0.0
  9
$PLIMCHECK
 70
0
  9
$PEXTMIN
 10
1e+20
 20
1e+20
 30
1e+20
  9
$PEXTMAX
 10
-1e+20
 20
-1e+20
 30
-1e+20
  9
$PLIMMIN
 10
0.0
 20
0.0
  9
$PLIMMAX
 10
420.0
 20
297.0
  9
$UNITMODE
 70
0
  9
$VISRETAIN
 70
1
  9
$PLINEGEN
 70
0
  9
$PSLTSCALE
 70
1
  9
$TREEDEPTH
 70
3020
  9
$CMLSTYLE
  2
Standard
  9
$CMLJUST
 70
0
  9
$CMLSCALE
 40
20.0
  9
$PROXYGRAPHICS
 70
1
  9
$MEASUREMENT
 70
1
  9
$CELWEIGHT
370
-1
  9
$ENDCAPS
280
0
  9
$JOINSTYLE
280
0
  9
$LWDISPLAY
290
0
  9
$INSUNITS
 70
6
  9
$HYPERLINKBASE
  1

  9
$STYLESHEET
  1

  9
$XEDIT
290
1
  9
$CEPSNTYPE
380
0
  9
$PSTYLEMODE
290
1
  9
$FINGERPRINTGUID
  2
{21DD02FC-D820-4E56-940B-89BA35685015}
  9
$VERSIONGUID
  2
{C7034987-F4CC-42B6-8BF5-85E1F597FE8C}
  9
$EXTNAMES
290
1
  9
$PSVPSCALE
 40
0.0
  9
$OLESTARTUP
290
0
  9
$SORTENTS
280
127
  9
$INDEXCTL
280
0
  9
$HIDETEXT
280
1
  9
$XCLIPFRAME
280
1
  9
$HALOGAP
280
0
  9
$OBSCOLOR
 70
257
  9
$OBSLTYPE
280
0
  9
$INTERSECTIONDISPLAY
280
0
  9
$INTERSECTIONCOLOR
 70
257
  9
$DIMASSOC
280
2
  9
$PROJECTNAME
  1

  9
$CAMERADISPLAY
290
0
  9
$LENSLENGTH
 40
50.0
  9
$CAMERAHEIGHT
 40
0.0
  9
$STEPSPERSEC
 40
24.0
  9
$STEPSIZE
 40
100.0
  9
$3DDWFPREC
 40
2.0
  9
$PSOLWIDTH
 40
0.005
  9
$PSOLHEIGHT
 40
0.08
  9
$LOFTANG1
 40
1.570796326795
  9
$LOFTANG2
 40
1.570796326795
  9
$LOFTMAG1
 40
0.0
  9
$LOFTMAG2
 40
0.0
  9
$LOFTPARAM
 70
7
  9
$LOFTNORMALS
280
1
  9
$LATITUDE
 40
37.795
  9
$LONGITUDE
 40
-122.394
  9
$NORTHDIRECTION
 40
0.0
  9
$TIMEZONE
 70
-8000
  9
$LIGHTGLYPHDISPLAY
280
1
  9
$TILEMODELIGHTSYNCH
280
1
  9
$CMATERIAL
347
20
  9
$SOLIDHIST
280
0
  9
$SHOWHIST
280
1
  9
$DWFFRAME
280
2
  9
$DGNFRAME
280
2
  9
$REALWORLDSCALE
290
1
  9
$INTERFERECOLOR
 62
256
  9
$CSHADOW
280
0
  9
$SHADOWPLANELOCATION
 40
0.0
  0
ENDSEC
  0
SECTION
  2
CLASSES
  0
CLASS
  1
ACDBDICTIONARYWDFLT
  2
AcDbDictionaryWithDefault
  3
ObjectDBX Classes
 90
0
 91
0
280
0
281
0
  0
CLASS
  1
SUN
  2
AcDbSun
  3
SCENEOE
 90
1153
 91
0
280
0
281
0
  0
CLASS
  1
VISUALSTYLE
  2
AcDbVisualStyle
  3
ObjectDBX Classes
 90
4095
 91
0
280
0
281
0
  0
CLASS
  1
MATERIAL
  2
AcDbMaterial
  3
ObjectDBX Classes
 90
1153
 91
0
280
0
281
0
  0
CLASS
  1
SCALE
  2
AcDbScale
  3
ObjectDBX Classes
 90
1153
 91
0
280
0
281
0
  0
CLASS
  1
TABLESTYLE
  2
AcDbTableStyle
  3
ObjectDBX Classes
 90
4095
 91
0
280
0
281
0
  0
CLASS
  1
MLEADERSTYLE
  2
AcDbMLeaderStyle
  3
ACDB_MLEADERSTYLE_CLASS
 90
4095
 91
0
280
0
281
0
  0
CLASS
  1
DICTIONARYVAR
  2
AcDbDictionaryVar
  3
ObjectDBX Classes
 90
0
 91
0
280
0
281
0
  0
CLASS
  1
CELLSTYLEMAP
  2
AcDbCellStyleMap
  3
ObjectDBX Classes
 90
1152
 91
0
280
0
281
0
  0
CLASS
  1
MENTALRAYRENDERSETTINGS
  2
AcDbMentalRayRenderSettings
  3
SCENEOE
 90
1024
 91
0
280
0
281
0
  0
CLASS
  1
ACDBDETAILVIEWSTYLE
  2
AcDbDetailViewStyle
  3
ObjectDBX Classes
 90
1025
 91
0
280
0
281
0
  0
CLASS
  1
ACDBSECTIONVIEWSTYLE
  2
AcDbSectionViewStyle
  3
ObjectDBX Classes
 90
1025
 91
0
280
0
281
0
  0
CLASS
  1
RASTERVARIABLES
  2
AcDbRasterVariables
  3
ISM
 90
0
 91
0
280
0
281
0
  0
CLASS
  1
LAYOUT
  2
AcDbLayout
  3
ObjectDBX Classes
 90
0
 91
0
280
0
281
0
  0
CLASS
  1
ACDBPLACEHOLDER
  2
AcDbPlaceHolder
  3
ObjectDBX Classes
 90
0
 91
0
280
0
281
0
  0
ENDSEC
  0
SECTION
  2
TABLES
  0
TABLE
  2
VPORT
  5
8
330
0
100
AcDbSymbolTable
 70
1
  0
VPORT
  5
23
330
8
100
AcDbSymbolTableRecord
100
AcDbViewportTableRecord
  2
*Active
 70
0
 10
0.0
 20
0.0
 11
1.0
 21
1.0
 12
0.0
 22
0.0
 13
0.0
 23
0.0
 14
0.5
 24
0.5
 15
0.5
 25
0.5
 16
0.0
 26
0.0
 36
1.0
 17
0.0
 27
0.0
 37
0.0
 40
1000.0
 41
1.34
 42
50.0
 43
0.0
 44
0.0
 50
0.0
 51
0.0
 71
0
 72
1000
 73
1
 74
3
 75
0
 76
0
 77
0
 78
0
281
0
 65
0
146
0.0
  0
ENDTAB
  0
TABLE
  2
LTYPE
  5
2
330
0
100
AcDbSymbolTable
 70
3
  0
LTYPE
  5
24
330
2
100
AcDbSymbolTableRecord
100
AcDbLinetypeTableRecord
  2
ByBlock
 70
0
  3

 72
65
 73
0
 40
0.0
  0
LTYPE
  5
25
330
2
100
AcDbSymbolTableRecord
100
AcDbLinetypeTableRecord
  2
ByLayer
 70
0
  3

 72
65
 73
0
 40
0.0
  0
LTYPE
  5
26
330
2
100
AcDbSymbolTableRecord
100
AcDbLinetypeTableRecord
  2
Continuous
 70
0
  3

 72
65
 73
0
 40
0.0
  0
ENDTAB
  0
TABLE
  2
LAYER
  5
1
330
0
100
AcDbSymbolTable
 70
2
  0
LAYER
  5
27
330
1
100
AcDbSymbolTableRecord
100
AcDbLayerTableRecord
  2
0
 70
0
 62
7
  6
Continuous
370
-3
390
13
347
21
  0
LAYER
  5
28
330
1
100
AcDbSymbolTableRecord
100
AcDbLayerTableRecord
  2
Defpoints
 70
0
 62
7
  6
Continuous
290
0
370
-3
390
13
347
21
  0
ENDTAB
  0
TABLE
  2
STYLE
  5
5
330
0
100
AcDbSymbolTable
 70
1
  0
STYLE
  5
29
330
5
100
AcDbSymbolTableRecord
100
AcDbTextStyleTableRecord
  2
Standard
 70
0
 40
0.0
 41
1.0
 50
0.0
 71
0
 42
2.5
  3
txt
  4

  0
ENDTAB
  0
TABLE
  2
VIEW
  5
7
330
0
100
AcDbSymbolTable
 70
0
  0
ENDTAB
  0
TABLE
  2
UCS
  5
6
330
0
100
AcDbSymbolTable
 70
0
  0
ENDTAB
  0
TABLE
  2
APPID
  5
3
330
0
100
AcDbSymbolTable
 70
3
  0
APPID
  5
2A
330
3
100
AcDbSymbolTableRecord
100
AcDbRegAppTableRecord
  2
ACAD
 70
0
  0
APPID
  5
33
330
3
100
AcDbSymbolTableRecord
100
AcDbRegAppTableRecord
  2
HATCHBACKGROUNDCOLOR
 70
0
  0
APPID
  5
34
330
3
100
AcDbSymbolTableRecord
100
AcDbRegAppTableRecord
  2
EZDXF
 70
0
  0
ENDTAB
  0
TABLE
  2
DIMSTYLE
  5
4
330
0
100
AcDbSymbolTable
 70
1
100
AcDbDimStyleTable
  0
DIMSTYLE
105
2B
330
4
100
AcDbSymbolTableRecord
100
AcDbDimStyleTableRecord
  2
Standard
 70
0
 40
1.0
 41
2.5
 42
0.625
 43
3.75
 44
1.25
 45
0.0
 46
0.0
 47
0.0
 48
0.0
 49
2.5
140
2.5
141
2.5
142
0.0
143
0.03937007874
144
1.0
145
0.0
146
1.0
147
0.625
148
0.0
 69
0
 70
0
 71
0
 72
0
 73
0
 74
0
 75
0
 76
0
 77
1
 78
8
 79
3
170
0
171
3
172
1
173
0
174
0
175
0
176
0
177
0
178
0
179
2
271
2
272
2
273
2
274
3
275
0
276
0
277
2
278
44
279
0
280
0
281
0
282
0
283
0
284
8
285
0
286
0
288
0
289
3
290
0
371
-2
372
-2
  0
ENDTAB
  0
TABLE
  2
BLOCK_RECORD
  5
9
330
0
100
AcDbSymbolTable
 70
2
  0
BLOCK_RECORD
  5
17
330
9
100
AcDbSymbolTableRecord
100
AcDbBlockTableRecord
  2
*Model_Space
340
1A
 70
0
280
1
281
0
  0
BLOCK_RECORD
  5
1B
330
9
100
AcDbSymbolTableRecord
100
AcDbBlockTableRecord
  2
*Paper_Space
340
1E
 70
0
280
1
281
0
  0
ENDTAB
  0
ENDSEC
  0
SECTION
  2
BLOCKS
  0
BLOCK
  5
18
330
17
100
AcDbEntity
  8
0
100
AcDbBlockBegin
  2
*Model_Space
 70
0
 10
0.0
 20
0.0
 30
0.0
  3
*Model_Space
  1

  0
ENDBLK
  5
19
330
17
100
AcDbEntity
  8
0
100
AcDbBlockEnd
  0
BLOCK
  5
1C
330
1B
100
AcDbEntity
  8
0
100
AcDbBlockBegin
  2
*Paper_Space
 70
0
 10
0.0
 20
0.0
 30
0.0
  3
*Paper_Space
  1

  0
ENDBLK
  5
1D
330
1B
100
AcDbEntity
  8
0
100
AcDbBlockEnd
  0
ENDSEC
  0
SECTION
  2
ENTITIES
  0
LWPOLYLINE
  5
2F
330
17
100
AcDbEntity
  8
PIEZA_CIRC
100
AcDbPolyline
 90
361
 70
1
 10
50.0
 20
0.0
 10
49.992384757819565
 20
0.8726203218641756
 10
49.969541350954785
 20
1.7449748351250485
 10
49.931476737728694
 20
2.6167978121471918
 10
49.87820251299121
 20
3.487823687206265
 10
49.80973490458728
 20
4.357787137382909
 10
49.72609476841367
 20
5.226423163382673
 10
49.6273075820661
 20
6.093467170257374
 10
49.513403437078516
 20
6.958655048003272
 10
49.38441702975689
 20
7.821723252011544
 10
49.2403876506104
 20
8.682408883346517
 10
49.0813591723832
 20
9.54044976882724
 10
48.907380036690284
 20
10.395584540887967
 10
48.718503239261764
 20
11.24755271719325
 10
48.514786313799824
 20
12.096094779983387
 10
48.29629131445341
 20
12.940952255126037
 10
48.063084796915945
 20
13.781867790849958
 10
47.81523779815177
 20
14.618585236136838
 10
47.552825814757675
 20
15.450849718747369
 10
47.275928779965845
 20
16.278407722857835
 10
46.98463103929542
 20
17.101007166283434
 10
46.67902132486009
 20
17.918397477265014
 10
46.35919272833937
 20
18.7303296707956
 10
46.02524267262202
 20
19.53655642446369
 10
45.67727288213004
 20
20.33683215379001
 10
45.31538935183249
 20
21.130913087034973
 10
44.93970231495835
 20
21.91855733945387
 10
44.550326209418394
 20
22.699524986977337
 10
44.14737964294635
 20
23.473578139294542
 10
43.73098535696979
 20
24.240481012316852
 10
43.30127018922194
 20
24.999999999999996
 10
42.858365035105614
 20
25.75190374550271
 10
42.4024048078213
 20
26.495963211660246
 10
41.9335283972712
 20
27.231951750751353
 10
41.45187862775209
 20
27.959645173537346
 10
40.95760221444959
 20
28.678821817552304
 10
40.45084971874737
 20
29.389262614623657
 10
39.931775502364644
 20
30.090751157602412
 10
39.40053768033609
 20
30.783073766282914
 10
38.85729807284854
 20
31.46601955249187
 10
38.302222155948904
 20
32.13938048432696
 10
37.7354790111386
 20
32.80295144952537
 10
37.157241273869715
 20
33.456530317942914
 10
36.567685080958526
 20
34.09991800312493
 10
35.96699001693256
 20
34.73291852294986
 10
35.35533905932738
 20
35.35533905932738
 10
34.73291852294986
 20
35.96699001693256
 10
34.09991800312493
 20
36.567685080958526
 10
33.456530317942914
 20
37.157241273869715
 10
32.80295144952537
 20
37.7354790111386
 10
32.13938048432697
 20
38.302222155948904
 10
31.466019552491876
 20
38.85729807284854
 10
30.783073766282914
 20
39.4005376803361
 10
30.09075115760242
 20
39.931775502364644
 10
29.389262614623657
 20
40.45084971874737
 10
28.678821817552304
 20
40.95760221444959
 10
27.95964517353734
 20
41.45187862775209
 10
27.231951750751353
 20
41.9335283972712
 10
26.495963211660246
 20
42.402404807821306
 10
25.75190374550271
 20
42.858365035105614
 10
25.000000000000007
 20
43.30127018922193
 10
24.240481012316856
 20
43.73098535696979
 10
23.473578139294542
 20
44.14737964294634
 10
22.69952498697734
 20
44.55032620941839
 10
21.918557339453873
 20
44.93970231495835
 10
21.130913087034973
 20
45.31538935183249
 10
20.33683215379001
 20
45.67727288213004
 10
19.536556424463686
 20
46.02524267262202
 10
18.730329670795598
 20
46.35919272833937
 10
17.918397477265017
 20
46.67902132486009
 10
17.10100716628344
 20
46.984631039295415
 10
16.27840772285784
 20
47.27592877996584
 10
15.450849718747373
 20
47.552825814757675
 10
14.618585236136838
 20
47.81523779815177
 10
13.781867790849958
 20
48.063084796915945
 10
12.940952255126037
 20
48.29629131445341
 10
12.096094779983384
 20
48.514786313799824
 10
11.247552717193246
 20
48.718503239261764
 10
10.395584540887972
 20
48.90738003669028
 10
9.540449768827246
 20
49.0813591723832
 10
8.68240888334652
 20
49.2403876506104
 10
7.821723252011546
 20
49.38441702975689
 10
6.958655048003274
 20
49.513403437078516
 10
6.093467170257375
 20
49.6273075820661
 10
5.226423163382673
 20
49.72609476841367
 10
4.357787137382907
 20
49.80973490458728
 10
3.487823687206262
 20
49.87820251299121
 10
2.6167978121471984
 20
49.931476737728694
 10
1.744974835125054
 20
49.969541350954785
 10
0.8726203218641799
 20
49.992384757819565
 10
3.061616997868383e-15
 20
50.0
 10
-0.8726203218641738
 20
49.992384757819565
 10
-1.7449748351250478
 20
49.969541350954785
 10
-2.616797812147192
 20
49.931476737728694
 10
-3.4878236872062667
 20
49.87820251299121
 10
-4.357787137382911
 20
49.80973490458728
 10
-5.226423163382678
 20
49.72609476841367
 10
-6.093467170257369
 20
49.6273075820661
 10
-6.958655048003267
 20
49.513403437078516
 10
-7.821723252011541
 20
49.38441702975689
 10
-8.682408883346515
 20
49.2403876506104
 10
-9.54044976882724
 20
49.0813591723832
 10
-10.395584540887967
 20
48.907380036690284
 10
-11.247552717193251
 20
48.718503239261764
 10
-12.096094779983389
 20
48.514786313799824
 10
-12.940952255126042
 20
48.29629131445341
 10
-13.781867790849953
 20
48.063084796915945
 10
-14.618585236136832
 20
47.81523779815178
 10
-15.450849718747367
 20
47.55282581475768
 10
-16.278407722857832
 20
47.275928779965845
 10
-17.101007166283434
 20
46.98463103929542
 10
-17.918397477265014
 20
46.67902132486009
 10
-18.730329670795605
 20
46.35919272833937
 10
-19.53655642446369
 20
46.025242672622014
 10
-20.336832153790013
 20
45.67727288213004
 10
-21.130913087034966
 20
45.3153893518325
 10
-21.918557339453876
 20
44.939702314958346
 10
-22.699524986977337
 20
44.550326209418394
 10
-23.473578139294546
 20
44.14737964294634
 10
-24.24048101231685
 20
43.73098535696979
 10
-24.99999999999999
 20
43.30127018922194
 10
-25.751903745502712
 20
42.858365035105614
 10
-26.49596321166024
 20
42.402404807821306
 10
-27.231951750751353
 20
41.9335283972712
 10
-27.959645173537336
 20
41.45187862775209
 10
-28.678821817552308
 20
40.95760221444959
 10
-29.38926261462365
 20
40.45084971874737
 10
-30.09075115760242
 20
39.93177550236464
 10
-30.783073766282914
 20
39.4005376803361
 10
-31.466019552491865
 20
38.85729807284855
 10
-32.13938048432697
 20
38.302222155948904
 10
-32.80295144952536
 20
37.73547901113861
 10
-33.456530317942914
 20
37.157241273869715
 10
-34.09991800312492
 20
36.567685080958526
 10
-34.732918522949866
 20
35.966990016932556
 10
-35.35533905932737
 20
35.35533905932738
 10
-35.96699001693256
 20
34.73291852294986
 10
-36.567685080958526
 20
34.09991800312493
 10
-37.15724127386971
 20
33.45653031794292
 10
-37.7354790111386
 20
32.80295144952537
 10
-38.3022221559489
 20
32.13938048432697
 10
-38.85729807284854
 20
31.46601955249187
 10
-39.40053768033609
 20
30.78307376628292
 10
-39.931775502364644
 20
30.09075115760241
 10
-40.450849718747364
 20
29.38926261462366
 10
-40.957602214449594
 20
28.678821817552297
 10
-41.45187862775208
 20
27.959645173537346
 10
-41.933528397271196
 20
27.231951750751364
 10
-42.4024048078213
 20
26.495963211660246
 10
-42.858365035105614
 20
25.75190374550272
 10
-43.30127018922194
 20
24.999999999999996
 10
-43.73098535696979
 20
24.24048101231686
 10
-44.14737964294635
 20
23.473578139294535
 10
-44.55032620941839
 20
22.699524986977345
 10
-44.93970231495835
 20
21.918557339453866
 10
-45.31538935183249
 20
21.130913087034976
 10
-45.67727288213004
 20
20.33683215379002
 10
-46.02524267262202
 20
19.53655642446369
 10
-46.359192728339366
 20
18.730329670795612
 10
-46.67902132486009
 20
17.91839747726501
 10
-46.984631039295415
 20
17.101007166283445
 10
-47.275928779965845
 20
16.27840772285783
 10
-47.552825814757675
 20
15.450849718747376
 10
-47.81523779815178
 20
14.61858523613683
 10
-48.063084796915945
 20
13.781867790849962
 10
-48.29629131445341
 20
12.940952255126051
 10
-48.514786313799824
 20
12.096094779983387
 10
-48.71850323926176
 20
11.24755271719326
 10
-48.907380036690284
 20
10.395584540887965
 10
-49.0813591723832
 20
9.540449768827248
 10
-49.2403876506104
 20
8.682408883346513
 10
-49.38441702975688
 20
7.821723252011549
 10
-49.513403437078516
 20
6.9586550480032665
 10
-49.6273075820661
 20
6.0934671702573775
 10
-49.72609476841367
 20
5.2264231633826865
 10
-49.80973490458728
 20
4.35778713738291
 10
-49.87820251299121
 20
3.4878236872062764
 10
-49.931476737728694
 20
2.6167978121471904
 10
-49.969541350954785
 20
1.7449748351250571
 10
-49.992384757819565
 20
0.8726203218641719
 10
-50.0
 20
6.123233995736766e-15
 10
-49.992384757819565
 20
-0.8726203218641818
 10
-49.969541350954785
 20
-1.744974835125045
 10
-49.931476737728694
 20
-2.616797812147178
 10
-49.87820251299121
 20
-3.4878236872062636
 10
-49.80973490458728
 20
-4.357787137382897
 10
-49.72609476841367
 20
-5.226423163382675
 10
-49.6273075820661
 20
-6.093467170257365
 10
-49.513403437078516
 20
-6.958655048003276
 10
-49.38441702975689
 20
-7.8217232520115365
 10
-49.2403876506104
 20
-8.682408883346524
 10
-49.0813591723832
 20
-9.540449768827235
 10
-48.90738003669028
 20
-10.395584540887976
 10
-48.718503239261764
 20
-11.24755271719325
 10
-48.514786313799824
 20
-12.096094779983375
 10
-48.29629131445341
 20
-12.94095225512604
 10
-48.063084796915945
 20
-13.78186779084995
 10
-47.81523779815177
 20
-14.618585236136838
 10
-47.55282581475768
 20
-15.450849718747364
 10
-47.27592877996584
 20
-16.27840772285784
 10
-46.98463103929542
 20
-17.101007166283434
 10
-46.67902132486009
 20
-17.91839747726502
 10
-46.35919272833937
 20
-18.7303296707956
 10
-46.02524267262202
 20
-19.536556424463676
 10
-45.67727288213004
 20
-20.33683215379001
 10
-45.3153893518325
 20
-21.130913087034962
 10
-44.939702314958346
 20
-21.918557339453873
 10
-44.550326209418394
 20
-22.69952498697733
 10
-44.14737964294634
 20
-23.473578139294542
 10
-43.73098535696979
 20
-24.24048101231685
 10
-43.30127018922193
 20
-25.000000000000007
 10
-42.858365035105614
 20
-25.75190374550271
 10
-42.402404807821306
 20
-26.49596321166024
 10
-41.9335283972712
 20
-27.231951750751353
 10
-41.45187862775209
 20
-27.959645173537336
 10
-40.95760221444959
 20
-28.678821817552308
 10
-40.45084971874737
 20
-29.38926261462365
 10
-39.931775502364644
 20
-30.09075115760242
 10
-39.4005376803361
 20
-30.78307376628291
 10
-38.857298072848536
 20
-31.46601955249188
 10
-38.302222155948904
 20
-32.13938048432696
 10
-37.73547901113861
 20
-32.80295144952535
 10
-37.157241273869715
 20
-33.456530317942914
 10
-36.567685080958526
 20
-34.09991800312492
 10
-35.966990016932556
 20
-34.73291852294986
 10
-35.355339059327385
 20
-35.35533905932737
 10
-34.73291852294986
 20
-35.96699001693256
 10
-34.09991800312493
 20
-36.567685080958526
 10
-33.45653031794291
 20
-37.157241273869715
 10
-32.80295144952537
 20
-37.7354790111386
 10
-32.13938048432697
 20
-38.3022221559489
 10
-31.466019552491893
 20
-38.85729807284853
 10
-30.783073766282904
 20
-39.40053768033611
 10
-30.090751157602412
 20
-39.931775502364644
 10
-29.38926261462366
 20
-40.450849718747364
 10
-28.67882181755232
 20
-40.95760221444958
 10
-27.95964517353733
 20
-41.451878627752095
 10
-27.23195175075135
 20
-41.93352839727121
 10
-26.49596321166025
 20
-42.4024048078213
 10
-25.75190374550272
 20
-42.85836503510561
 10
-25.00000000000002
 20
-43.301270189221924
 10
-24.24048101231684
 20
-43.73098535696979
 10
-23.47357813929454
 20
-44.14737964294635
 10
-22.699524986977345
 20
-44.55032620941839
 10
-21.918557339453887
 20
-44.93970231495834
 10
-21.13091308703496
 20
-45.31538935183251
 10
-20.336832153790006
 20
-45.67727288213005
 10
-19.53655642446369
 20
-46.025242672622014
 10
-18.730329670795616
 20
-46.359192728339366
 10
-17.918397477265035
 20
-46.67902132486008
 10
-17.101007166283427
 20
-46.98463103929542
 10
-16.278407722857832
 20
-47.275928779965845
 10
-15.450849718747378
 20
-47.552825814757675
 10
-14.618585236136855
 20
-47.81523779815176
 10
-13.781867790849944
 20
-48.06308479691595
 10
-12.940952255126032
 20
-48.29629131445341
 10
-12.096094779983389
 20
-48.514786313799824
 10
-11.247552717193262
 20
-48.71850323926176
 10
-10.39558454088799
 20
-48.90738003669028
 10
-9.54044976882723
 20
-49.0813591723832
 10
-8.682408883346517
 20
-49.2403876506104
 10
-7.821723252011552
 20
-49.38441702975688
 10
-6.958655048003291
 20
-49.513403437078516
 10
-6.093467170257359
 20
-49.6273075820661
 10
-5.226423163382668
 20
-49.72609476841367
 10
-4.357787137382912
 20
-49.80973490458728
 10
-3.487823687206279
 20
-49.87820251299121
 10
-2.6167978121472153
 20
-49.931476737728694
 10
-1.744974835125038
 20
-49.969541350954785
 10
-0.8726203218641749
 20
-49.992384757819565
 10
-9.184850993605149e-15
 20
-50.0
 10
0.8726203218641565
 20
-49.992384757819565
 10
1.744974835125064
 20
-49.969541350954785
 10
2.616797812147197
 20
-49.931476737728694
 10
3.487823687206261
 20
-49.878202512991216
 10
4.3577871373828945
 20
-49.80973490458728
 10
5.226423163382649
 20
-49.72609476841367
 10
6.093467170257385
 20
-49.6273075820661
 10
6.958655048003274
 20
-49.513403437078516
 10
7.821723252011534
 20
-49.38441702975689
 10
8.682408883346499
 20
-49.24038765061041
 10
9.540449768827255
 20
-49.081359172383195
 10
10.395584540887972
 20
-48.90738003669028
 10
11.247552717193246
 20
-48.718503239261764
 10
12.096094779983371
 20
-48.51478631379983
 10
12.940952255126014
 20
-48.29629131445342
 10
13.781867790849969
 20
-48.06308479691594
 10
14.618585236136836
 20
-47.81523779815177
 10
15.450849718747362
 20
-47.55282581475768
 10
16.278407722857814
 20
-47.275928779965845
 10
17.10100716628345
 20
-46.984631039295415
 10
17.918397477265017
 20
-46.67902132486009
 10
18.730329670795598
 20
-46.35919272833937
 10
19.536556424463676
 20
-46.02524267262203
 10
20.336832153789988
 20
-45.677272882130055
 10
21.13091308703498
 20
-45.31538935183249
 10
21.91855733945387
 20
-44.93970231495835
 10
22.69952498697733
 20
-44.5503262094184
 10
23.47357813929452
 20
-44.147379642946355
 10
24.240481012316863
 20
-43.73098535696978
 10
25.000000000000007
 20
-43.30127018922193
 10
25.75190374550271
 20
-42.858365035105614
 10
26.495963211660232
 20
-42.402404807821306
 10
27.231951750751332
 20
-41.93352839727121
 10
27.95964517353735
 20
-41.45187862775208
 10
28.678821817552304
 20
-40.95760221444959
 10
29.389262614623647
 20
-40.45084971874738
 10
30.090751157602398
 20
-39.93177550236465
 10
30.783073766282925
 20
-39.400537680336086
 10
31.466019552491876
 20
-38.857298072848536
 10
32.13938048432696
 20
-38.302222155948904
 10
32.80295144952535
 20
-37.735479011138615
 10
33.45653031794289
 20
-37.15724127386973
 10
34.09991800312493
 20
-36.56768508095852
 10
34.73291852294986
 20
-35.966990016932556
 10
35.35533905932737
 20
-35.355339059327385
 10
35.96699001693254
 20
-34.73291852294988
 10
36.56768508095853
 20
-34.09991800312491
 10
37.157241273869715
 20
-33.45653031794291
 10
37.735479011138594
 20
-32.80295144952537
 10
38.30222215594889
 20
-32.13938048432698
 10
38.85729807284853
 20
-31.466019552491893
 10
39.4005376803361
 20
-30.78307376628291
 10
39.931775502364644
 20
-30.090751157602412
 10
40.450849718747364
 20
-29.389262614623668
 10
40.95760221444958
 20
-28.678821817552326
 10
41.451878627752095
 20
-27.95964517353733
 10
41.9335283972712
 20
-27.23195175075135
 10
42.40240480782129
 20
-26.49596321166025
 10
42.85836503510561
 20
-25.751903745502723
 10
43.30127018922192
 20
-25.00000000000002
 10
43.73098535696979
 20
-24.240481012316845
 10
44.14737964294635
 20
-23.473578139294542
 10
44.55032620941839
 20
-22.699524986977348
 10
44.93970231495834
 20
-21.91855733945389
 10
45.3153893518325
 20
-21.130913087034962
 10
45.67727288213005
 20
-20.336832153790006
 10
46.025242672622014
 20
-19.536556424463694
 10
46.359192728339366
 20
-18.730329670795616
 10
46.679021324860074
 20
-17.91839747726504
 10
46.98463103929542
 20
-17.10100716628343
 10
47.275928779965845
 20
-16.278407722857835
 10
47.552825814757675
 20
-15.450849718747383
 10
47.81523779815176
 20
-14.618585236136857
 10
48.063084796915945
 20
-13.781867790849947
 10
48.29629131445341
 20
-12.940952255126033
 10
48.514786313799824
 20
-12.096094779983394
 10
48.71850323926176
 20
-11.247552717193267
 10
48.90738003669028
 20
-10.395584540887993
 10
49.0813591723832
 20
-9.540449768827234
 10
49.2403876506104
 20
-8.68240888334652
 10
49.38441702975688
 20
-7.821723252011554
 10
49.513403437078516
 20
-6.958655048003294
 10
49.6273075820661
 20
-6.0934671702573615
 10
49.72609476841367
 20
-5.2264231633826705
 10
49.80973490458728
 20
-4.357787137382916
 10
49.87820251299121
 20
-3.4878236872062818
 10
49.931476737728694
 20
-2.6167978121472184
 10
49.969541350954785
 20
-1.7449748351250411
 10
49.992384757819565
 20
-0.872620321864178
 10
50.0
 20
-1.2246467991473532e-14
  0
LWPOLYLINE
  5
30
330
17
100
AcDbEntity
  8
VIDRIO_FORMA
100
AcDbPolyline
 90
251
 70
0
 10
0.0
 20
0.0
 10
2.0
 20
0.0
 10
4.0
 20
0.0
 10
6.0
 20
0.0
 10
8.0
 20
0.0
 10
10.0
 20
0.0
 10
12.0
 20
0.0
 10
14.0
 20
0.0
 10
16.0
 20
0.0
 10
18.0
 20
0.0
 10
20.0
 20
0.0
 10
22.0
 20
0.0
 10
24.0
 20
0.0
 10
26.0
 20
0.0
 10
28.0
 20
0.0
 10
30.0
 20
0.0
 10
32.0
 20
0.0
 10
34.0
 20
0.0
 10
36.0
 20
0.0
 10
38.0
 20
0.0
 10
40.0
 20
0.0
 10
42.0
 20
0.0
 10
44.0
 20
0.0
 10
46.0
 20
0.0
 10
48.0
 20
0.0
 10
50.0
 20
0.0
 10
52.0
 20
0.0
 10
54.0
 20
0.0
 10
56.0
 20
0.0
 10
58.0
 20
0.0
 10
60.0
 20
0.0
 10
62.0
 20
0.0
 10
64.0
 20
0.0
 10
66.0
 20
0.0
 10
68.0
 20
0.0
 10
70.0
 20
0.0
 10
72.0
 20
0.0
 10
74.0
 20
0.0
 10
76.0
 20
0.0
 10
78.0
 20
0.0
 10
80.0
 20
0.0
 10
82.0
 20
0.0
 10
84.0
 20
0.0
 10
86.0
 20
0.0
 10
88.0
 20
0.0
 10
90.0
 20
0.0
 10
92.0
 20
0.0
 10
94.0
 20
0.0
 10
96.0
 20
0.0
 10
98.0
 20
0.0
 10
100.0
 20
0.0
 10
102.0
 20
0.0
 10
104.0
 20
0.0
 10
106.0
 20
0.0
 10
108.0
 20
0.0
 10
110.0
 20
0.0
 10
112.0
 20
0.0
 10
114.0
 20
0.0
 10
116.0
 20
0.0
 10
118.0
 20
0.0
 10
120.0
 20
0.0
 10
122.0
 20
0.0
 10
124.0
 20
0.0
 10
126.0
 20
0.0
 10
128.0
 20
0.0
 10
130.0
 20
0.0
 10
132.0
 20
0.0
 10
134.0
 20
0.0
 10
136.0
 20
0.0
 10
138.0
 20
0.0
 10
140.0
 20
0.0
 10
142.0
 20
0.0
 10
144.0
 20
0.0
 10
146.0
 20
0.0
 10
148.0
 20
0.0
 10
150.0
 20
0.0
 10
152.0
 20
0.0
 10
154.0
 20
0.0
 10
156.0
 20
0.0
 10
158.0
 20
0.0
 10
160.0
 20
0.0
 10
162.0
 20
0.0
 10
164.0
 20
0.0
 10
166.0
 20
0.0
 10
168.0
 20
0.0
 10
170.0
 20
0.0
 10
172.0
 20
0.0
 10
174.0
 20
0.0
 10
176.0
 20
0.0
 10
178.0
 20
0.0
 10
180.0
 20
0.0
 10
182.0
 20
0.0
 10
184.0
 20
0.0
 10
186.0
 20
0.0
 10
188.0
 20
0.0
 10
190.0
 20
0.0
 10
192.0
 20
0.0
 10
194.0
 20
0.0
 10
196.0
 20
0.0
 10
198.0
 20
0.0
 10
220.0
 20
20.0
 10
219.99695390312783
 20
20.34904812874567
 10
219.9878165403819
 20
20.69798993405002
 10
219.97259069509147
 20
21.04671912485888
 10
219.95128100519648
 20
21.395129474882506
 10
219.92389396183492
 20
21.743114854953163
 10
219.89043790736548
 20
22.090569265353068
 10
219.85092303282644
 20
22.437386868102948
 10
219.80536137483142
 20
22.78346201920131
 10
219.75376681190275
 20
23.128689300804616
 10
219.69615506024417
 20
23.472963553338605
 10
219.63254366895328
 20
23.816179907530895
 10
219.5629520146761
 20
24.158233816355185
 10
219.4874012957047
 20
24.4990210868773
 10
219.40591452551993
 20
24.838437911993353
 10
219.31851652578138
 20
25.176380902050415
 10
219.22523391876638
 20
25.512747116339984
 10
219.1260951192607
 20
25.847434094454734
 10
219.02113032590307
 20
26.18033988749895
 10
218.91037151198634
 20
26.511363089143135
 10
218.79385241571816
 20
26.840402866513372
 10
218.67160852994402
 20
27.167358990906006
 10
218.54367709133575
 20
27.49213186831824
 10
218.41009706904882
 20
27.814622569785477
 10
218.27090915285203
 20
28.134732861516007
 10
218.126155740733
 20
28.45236523481399
 10
217.97588092598335
 20
28.767422935781546
 10
217.82013048376734
 20
29.079809994790935
 10
217.65895185717855
 20
29.389431255717817
 10
217.49239414278793
 20
29.69619240492674
 10
217.32050807568876
 20
30.0
 10
217.14334601404224
 20
30.300761498201084
 10
216.9609619231285
 20
30.598385284664097
 10
216.77341135890848
 20
30.89278070030054
 10
216.58075145110084
 20
31.18385806941494
 10
216.38304088577985
 20
31.47152872702092
 10
216.18033988749895
 20
31.755705045849464
 10
215.97271020094587
 20
32.036300463040966
 10
215.76021507213443
 20
32.31322950651317
 10
215.54291922913941
 20
32.58640782099675
 10
215.32088886237955
 20
32.85575219373079
 10
215.09419160445543
 20
33.121180579810144
 10
214.86289650954788
 20
33.38261212717717
 10
214.6270740323834
 20
33.63996720124997
 10
214.386796006773
 20
33.893167409179945
 10
214.14213562373095
 20
34.14213562373095
 10
213.89316740917994
 20
34.386796006773025
 10
213.63996720124996
 20
34.627074032383405
 10
213.38261212717717
 20
34.86289650954788
 10
213.12118057981016
 20
35.09419160445544
 10
212.85575219373078
 20
35.32088886237956
 10
212.58640782099675
 20
35.542919229139414
 10
212.31322950651315
 20
35.76021507213444
 10
212.03630046304096
 20
35.972710200945855
 10
211.75570504584945
 20
36.180339887498945
 10
211.4715287270209
 20
36.383040885779835
 10
211.18385806941492
 20
36.58075145110084
 10
210.89278070030053
 20
36.77341135890848
 10
210.5983852846641
 20
36.96096192312852
 10
210.3007614982011
 20
37.14334601404225
 10
210.0
 20
37.32050807568877
 10
209.69619240492673
 20
37.492394142787916
 10
209.38943125571782
 20
37.658951857178536
 10
209.07980999479093
 20
37.82013048376736
 10
208.76742293578155
 20
37.97588092598334
 10
208.45236523481398
 20
38.126155740733
 10
208.134732861516
 20
38.27090915285201
 10
207.81462256978548
 20
38.4100970690488
 10
207.49213186831824
 20
38.54367709133575
 10
207.167358990906
 20
38.67160852994404
 10
206.8404028665134
 20
38.79385241571816
 10
206.51136308914315
 20
38.910371511986334
 10
206.18033988749895
 20
39.02113032590307
 10
205.84743409445474
 20
39.12609511926071
 10
205.51274711634
 20
39.22523391876638
 10
205.17638090205043
 20
39.31851652578136
 10
204.83843791199337
 20
39.40591452551993
 10
204.4990210868773
 20
39.4874012957047
 10
204.1582338163552
 20
39.562952014676114
 10
203.8161799075309
 20
39.632543668953275
 10
203.47296355333862
 20
39.69615506024416
 10
203.1286893008046
 20
39.75376681190276
 10
202.7834620192013
 20
39.805361374831406
 10
202.43738686810295
 20
39.850923032826444
 10
202.09056926535308
 20
39.89043790736547
 10
201.74311485495315
 20
39.92389396183491
 10
201.3951294748825
 20
39.951281005196485
 10
201.04671912485887
 20
39.972590695091476
 10
200.69798993405
 20
39.987816540381914
 10
200.34904812874566
 20
39.996953903127825
 10
200.0
 20
40.0
 10
200.0
 20
20.0
 10
200.0
 20
22.0
 10
200.0
 20
24.0
 10
200.0
 20
26.0
 10
200.0
 20
28.0
 10
200.0
 20
30.0
 10
200.0
 20
32.0
 10
200.0
 20
34.0
 10
200.0
 20
36.0
 10
200.0
 20
38.0
 10
200.0
 20
40.0
 10
200.0
 20
42.0
 10
200.0
 20
44.0
 10
200.0
 20
46.0
 10
200.0
 20
48.0
 10
200.0
 20
50.0
 10
200.0
 20
52.0
 10
200.0
 20
54.0
 10
200.0
 20
56.0
 10
200.0
 20
58.0
 10
200.0
 20
60.0
 10
200.0
 20
62.0
 10
200.0
 20
64.0
 10
200.0
 20
66.0
 10
200.0
 20
68.0
 10
200.0
 20
70.0
 10
200.0
 20
72.0
 10
200.0
 20
74.0
 10
200.0
 20
76.0
 10
200.0
 20
78.0
 10
200.0
 20
80.0
 10
200.0
 20
82.0
 10
200.0
 20
84.0
 10
200.0
 20
86.0
 10
200.0
 20
88.0
 10
200.0
 20
90.0
 10
200.0
 20
92.0
 10
200.0
 20
94.0
 10
200.0
 20
96.0
 10
200.0
 20
98.0
 10
200.0
 20
100.0
 10
200.0
 20
102.0
 10
200.0
 20
104.0
 10
200.0
 20
106.0
 10
200.0
 20
108.0
 10
200.0
 20
110.0
 10
200.0
 20
112.0
 10
200.0
 20
114.0
 10
200.0
 20
116.0
 10
200.0
 20
118.0
 10
200.0
 20
120.0
 10
200.0
 20
122.0
 10
200.0
 20
124.0
 10
200.0
 20
126.0
 10
200.0
 20
128.0
 10
200.0
 20
130.0
 10
200.0
 20
132.0
 10
200.0
 20
134.0
 10
200.0
 20
136.0
 10
200.0
 20
138.0
  0
SPLINE
  5
31
330
17
100
AcDbEntity
  8
CURVA_LIBRE
100
AcDbSpline
 70
0
 71
3
 72
0
 73
0
 74
7
 11
0.0
 21
100.0
 31
0.0
 11
25.0
 21
115.0
 31
0.0
 11
50.0
 21
120.0
 31
0.0
 11
75.0
 21
115.0
 31
0.0
 11
100.0
 21
100.0
 31
0.0
 11
125.0
 21
85.0
 31
0.0
 11
150.0
 21
80.0
 31
0.0
  0
LINE
  5
32
330
17
100
AcDbEntity
  8
LINEA_SIMPLE
100
AcDbLine
 10
300.0
 20
0.0
 30
0.0
 11
400.0
 21
100.0
 31
0.0
  0
ENDSEC
  0
SECTION
  2
OBJECTS
  0
DICTIONARY
  5
A
330
0
100
AcDbDictionary
281
1
  3
ACAD_COLOR
350
B
  3
ACAD_GROUP
350
C
  3
ACAD_LAYOUT
350
D
  3
ACAD_MATERIAL
350
E
  3
ACAD_MLEADERSTYLE
350
F
  3
ACAD_MLINESTYLE
350
10
  3
ACAD_PLOTSETTINGS
350
11
  3
ACAD_PLOTSTYLENAME
350
12
  3
ACAD_SCALELIST
350
14
  3
ACAD_TABLESTYLE
350
15
  3
ACAD_VISUALSTYLE
350
16
  3
EZDXF_META
350
2D
  0
DICTIONARY
  5
B
330
A
100
AcDbDictionary
281
1
  0
DICTIONARY
  5
C
330
A
100
AcDbDictionary
281
1
  0
DICTIONARY
  5
D
330
A
100
AcDbDictionary
281
1
  3
Model
350
1A
  3
Layout1
350
1E
  0
DICTIONARY
  5
E
330
A
100
AcDbDictionary
281
1
  3
ByBlock
350
1F
  3
ByLayer
350
20
  3
Global
350
21
  0
DICTIONARY
  5
F
330
A
100
AcDbDictionary
281
1
  3
Standard
350
2C
  0
DICTIONARY
  5
10
330
A
100
AcDbDictionary
281
1
  3
Standard
350
22
  0
DICTIONARY
  5
11
330
A
100
AcDbDictionary
281
1
  0
ACDBDICTIONARYWDFLT
  5
12
330
A
100
AcDbDictionary
281
1
  3
Normal
350
13
100
AcDbDictionaryWithDefault
340
13
  0
ACDBPLACEHOLDER
  5
13
330
12
  0
DICTIONARY
  5
14
330
A
100
AcDbDictionary
281
1
  0
DICTIONARY
  5
15
330
A
100
AcDbDictionary
281
1
  0
DICTIONARY
  5
16
330
A
100
AcDbDictionary
281
1
  0
LAYOUT
  5
1A
330
D
100
AcDbPlotSettings
  1

  4
A3
  6

 40
7.5
 41
20.0
 42
7.5
 43
20.0
 44
420.0
 45
297.0
 46
0.0
 47
0.0
 48
0.0
 49
0.0
140
0.0
141
0.0
142
1.0
143
1.0
 70
1024
 72
1
 73
0
 74
5
  7

 75
16
 76
0
 77
2
 78
300
147
1.0
148
0.0
149
0.0
100
AcDbLayout
  1
Model
 70
1
 71
0
 10
0.0
 20
0.0
 11
420.0
 21
297.0
 12
0.0
 22
0.0
 32
0.0
 14
1e+20
 24
1e+20
 34
1e+20
 15
-1e+20
 25
-1e+20
 35
-1e+20
146
0.0
 13
0.0
 23
0.0
 33
0.0
 16
1.0
 26
0.0
 36
0.0
 17
0.0
 27
1.0
 37
0.0
 76
1
330
17
  0
LAYOUT
  5
1E
330
D
100
AcDbPlotSettings
  1

  4
A3
  6

 40
7.5
 41
20.0
 42
7.5
 43
20.0
 44
420.0
 45
297.0
 46
0.0
 47
0.0
 48
0.0
 49
0.0
140
0.0
141
0.0
142
1.0
143
1.0
 70
0
 72
1
 73
0
 74
5
  7

 75
16
 76
0
 77
2
 78
300
147
1.0
148
0.0
149
0.0
100
AcDbLayout
  1
Layout1
 70
1
 71
1
 10
0.0
 20
0.0
 11
420.0
 21
297.0
 12
0.0
 22
0.0
 32
0.0
 14
1e+20
 24
1e+20
 34
1e+20
 15
-1e+20
 25
-1e+20
 35
-1e+20
146
0.0
 13
0.0
 23
0.0
 33
0.0
 16
1.0
 26
0.0
 36
0.0
 17
0.0
 27
1.0
 37
0.0
 76
1
330
1B
  0
MATERIAL
  5
1F
102
{ACAD_REACTORS
330
E
102
}
330
E
100
AcDbMaterial
  1
ByBlock
  2

 70
0
 40
1.0
 71
1
 41
1.0
 91
-1023410177
 42
1.0
 72
1
  3

 73
1
 74
1
 75
1
 44
0.5
 73
0
 45
1.0
 46
1.0
 77
1
  4

 78
1
 79
1
170
1
 48
1.0
171
1
  6

172
1
173
1
174
1
140
1.0
141
1.0
175
1
  7

176
1
177
1
178
1
143
1.0
179
1
  8

270
1
271
1
272
1
145
1.0
146
1.0
273
1
  9

274
1
275
1
276
1
 42
1.0
 72
1
  3

 73
1
 74
1
 75
1
 94
63
  0
MATERIAL
  5
20
102
{ACAD_REACTORS
330
E
102
}
330
E
100
AcDbMaterial
  1
ByLayer
  2

 70
0
 40
1.0
 71
1
 41
1.0
 91
-1023410177
 42
1.0
 72
1
  3

 73
1
 74
1
 75
1
 44
0.5
 73
0
 45
1.0
 46
1.0
 77
1
  4

 78
1
 79
1
170
1
 48
1.0
171
1
  6

172
1
173
1
174
1
140
1.0
141
1.0
175
1
  7

176
1
177
1
178
1
143
1.0
179
1
  8

270
1
271
1
272
1
145
1.0
146
1.0
273
1
  9

274
1
275
1
276
1
 42
1.0
 72
1
  3

 73
1
 74
1
 75
1
 94
63
  0
MATERIAL
  5
21
102
{ACAD_REACTORS
330
E
102
}
330
E
100
AcDbMaterial
  1
Global
  2

 70
0
 40
1.0
 71
1
 41
1.0
 91
-1023410177
 42
1.0
 72
1
  3

 73
1
 74
1
 75
1
 44
0.5
 73
0
 45
1.0
 46
1.0
 77
1
  4

 78
1
 79
1
170
1
 48
1.0
171
1
  6

172
1
173
1
174
1
140
1.0
141
1.0
175
1
  7

176
1
177
1
178
1
143
1.0
179
1
  8

270
1
271
1
272
1
145
1.0
146
1.0
273
1
  9

274
1
275
1
276
1
 42
1.0
 72
1
  3

 73
1
 74
1
 75
1
 94
63
  0
MLINESTYLE
  5
22
102
{ACAD_REACTORS
330
10
102
}
330
10
100
AcDbMlineStyle
  2
Standard
 70
0
  3

 62
256
 51
90.0
 52
90.0
 71
2
 49
0.5
 62
256
  6
BYLAYER
 49
-0.5
 62
256
  6
BYLAYER
  0
MLEADERSTYLE
  5
2C
102
{ACAD_REACTORS
330
F
102
}
330
F
100
AcDbMLeaderStyle
179
2
170
2
171
1
172
0
 90
2
 40
0.0
 41
0.0
173
1
 91
-1056964608
 92
-2
290
1
 42
2.0
291
1
 43
8.0
  3
Standard
 44
4.0
300

342
29
174
1
175
1
176
0
178
1
 93
-1056964608
 45
4.0
292
0
297
0
 46
4.0
 94
-1056964608
 47
1.0
 49
1.0
140
1.0
294
1
141
0.0
177
0
142
1.0
295
0
296
0
143
3.75
271
0
272
9
273
9
  0
DICTIONARY
  5
2D
330
A
100
AcDbDictionary
280
1
281
1
  3
CREATED_BY_EZDXF
350
2E
  3
WRITTEN_BY_EZDXF
350
35
  0
DICTIONARYVAR
  5
2E
330
2D
100
DictionaryVariables
280
0
  1
1.4.3 @ 2026-05-25T20:34:00.311412+00:00
  0
DICTIONARYVAR
  5
35
330
2D
100
DictionaryVariables
280
0
  1
1.4.3 @ 2026-05-25T20:34:00.335862+00:00
  0
ENDSEC
  0
EOF
